<svg xmlns="http://www.w3.org/2000/svg" viewBox="0 0 65.08 10.64"><defs><style>.cls-1{fill:#333132;}</style></defs><title>Asset 4</title><g id="Layer_2" data-name="Layer 2"><g id="Layer_1-2" data-name="Layer 1"><path class="cls-1" d="M0,10.48v-.23H.63V.34H0V.11H3V.34H2.4v9.91h.67v.23Z"/><path class="cls-1" d="M2.83,10.48v-.23c.53-.09.77-.36.77-1V.34H3V.11H5.39C6,2.52,6.64,4.89,7.09,7.33h0V1.19c0-.65-.27-.82-.69-.85V.11H8.08V.34a.71.71,0,0,0-.67.79v9.35H6.17L3.93.9s0,0,0,0V9.28c0,.77.33,1,.73,1v.23Z"/><path class="cls-1" d="M8,.34V.11H9.94c1.82,0,2.94.5,3.07,4.59V6.3c0,2-.37,4.19-2.44,4.19H8v-.23h.54V.34Zm2.31,9.91c.69,0,.9-.23.9-.69V1.39c0-.95-.24-1-.9-1Z"/><path class="cls-1" d="M13.21,10.48v-.23h.54V.34h-.54V.11H18.1V4h-.19c-.49-2.85-.75-3.7-1.65-3.7h-.75V5.08c.73-.13,1.09-.59,1.19-2.5h.2V7.89h-.16c-.2-1.89-.42-2.51-1.23-2.58v4.95H16c.75,0,1.08-.17,1.48-1.75a15.48,15.48,0,0,0,.46-2.21h.22v4.19Z"/><path class="cls-1" d="M18.52.34V.11H21a2.21,2.21,0,0,1,2.48,2.42A2.21,2.21,0,0,1,21.6,5V5a2.48,2.48,0,0,1,1.92,2.74c0,1.35-.47,2.7-2.71,2.7H18.52v-.23h.55V.34Zm2.31,4.58h.33c.49,0,.6-.33.6-.95V1.25c0-.89-.29-.9-.72-.9h-.21Zm0,5.34H21c.46,0,.72-.09.72-.86V6.1c0-.75-.23-.92-.63-.92h-.3Z"/><path class="cls-1" d="M23.8.11H29V4.55h-.2c-.47-3-.93-4.22-1.49-4.23h0v9.94h.6v.23h-3v-.23h.6V.32h0c-.56,0-1,1.22-1.49,4.23h-.2Z"/><path class="cls-1" d="M29.13.11h5.21V4.55h-.2c-.47-3-.93-4.22-1.49-4.23h0v9.94h.6v.23h-3v-.23h.6V.32h0c-.56,0-1,1.22-1.49,4.23h-.2Z"/><path class="cls-1" d="M39.45,5.32c0,3.73-.67,5.32-2.32,5.32S34.8,9.05,34.8,5.32,35.47,0,37.12,0,39.45,1.59,39.45,5.32Zm-1.79-4c0-.7-.09-1.06-.53-1.06s-.53.36-.53,1.06V9.47c0,.76.14.95.53.95s.53-.19.53-.95Z"/><path class="cls-1" d="M39.53.34V.11h1.94c1.82,0,2.94.5,3.07,4.59V6.3c0,2-.37,4.19-2.44,4.19H39.53v-.23h.54V.34Zm2.31,9.91c.69,0,.9-.23.9-.69V1.39c0-.95-.24-1-.9-1Z"/><path class="cls-1" d="M44.68,10.48v-.23h.54V.34h-.54V.11h4.89V4h-.19c-.49-2.85-.75-3.7-1.65-3.7H47V5.08c.73-.13,1.09-.59,1.19-2.5h.2V7.89h-.16C48,6,47.81,5.38,47,5.31v4.95h.43c.75,0,1.08-.17,1.48-1.75a15.34,15.34,0,0,0,.46-2.21h.21v4.19Z"/><path class="cls-1" d="M49.5,10.48v-.23c.37,0,.54-.13.63-.65L51.8.11h1l1.42,10.14h.52v.23H52v-.23h.57l-.21-1.89H50.63L50.45,9.8c0,.34.4.46.65.46v.23Zm2.77-2.35L51.61,3h0l-.9,5.15Z"/><path class="cls-1" d="M54,.11h5.21V4.55H59c-.47-3-.93-4.22-1.49-4.23h0v9.94h.6v.23h-3v-.23h.6V.32h0c-.56,0-1,1.22-1.49,4.23H54Z"/><path class="cls-1" d="M59.15,10.48v-.23h.54V.34h-.54V.11h2.71V.34h-.4V5h1.3V.34h-.4V.11h2.71V.34h-.54v9.91h.54v.23H62.37v-.23h.4v-5h-1.3v5h.4v.23Z"/></g></g></svg>