<svg xmlns="http://www.w3.org/2000/svg" viewBox="0 0 13.02 13.16"><defs><style>.cls-1{fill:#333132;}</style></defs><title>TagAsset 2</title><g id="Layer_2" data-name="Layer 2"><g id="Layer_1-2" data-name="Layer 1"><path class="cls-1" d="M13,6.26c0,.31,0,.61,0,.92s-.16.41-.11.64-.11.45-.15.69a3.23,3.23,0,0,1-.2.61.63.63,0,0,1-.12.18,6.45,6.45,0,0,0-.45.79,8.11,8.11,0,0,1-1.69,1.7c-.24.18-.46.37-.69.55a12.21,12.21,0,0,1-1.8.79.79.79,0,0,1-.34,0,13.61,13.61,0,0,1-1.55,0,5.45,5.45,0,0,1-3.33-1.4c-.16-.15-.35-.26-.52-.41A14.4,14.4,0,0,1,.88,9.8a.43.43,0,0,1-.06-.2c0-.06,0-.15,0-.17-.4-.3-.31-.8-.48-1.18S.25,7.65.08,7.36A2,2,0,0,1,0,6.48,5.46,5.46,0,0,1,.12,4.92,3.92,3.92,0,0,1,.65,3.69C.8,3.48.89,3.21,1,3A9.93,9.93,0,0,1,2,1.75,9,9,0,0,1,2.88,1S3,1,3,.95c.25-.19.61-.08.84-.34S4.4.44,4.65.29s.42-.05.64-.12A2.9,2.9,0,0,1,6,0,4.34,4.34,0,0,1,7.07,0,7.88,7.88,0,0,1,9.41.76c.33.19.67.33,1,.51s.35.49.61.58.31.5.59.63c0,.21.23.29.34.42a1.77,1.77,0,0,1,.23.55c.08.17.36.27.25.53.24.15.23.44.37.66a1.76,1.76,0,0,1,.2.77A7.87,7.87,0,0,1,13,6.26Z"/></g></g></svg>